<mxfile host="app.diagrams.net" modified="2023-11-04T09:23:52.541Z" agent="Mozilla/5.0 (Windows NT 10.0; Win64; x64) AppleWebKit/537.36 (KHTML, like Gecko) Chrome/119.0.6045.9 Safari/537.36" etag="V9CkrqrAMzblgZSwCQtA" version="22.0.8" type="github">
  <diagram id="07fea595-8f29-1299-0266-81d95cde20df" name="Page-1">
    <mxGraphModel dx="1434" dy="877" grid="1" gridSize="10" guides="1" tooltips="1" connect="1" arrows="1" fold="1" page="1" pageScale="1" pageWidth="1169" pageHeight="827" background="#ffffff" math="0" shadow="0">
      <root>
        <mxCell id="0" />
        <mxCell id="1" parent="0" />
        <mxCell id="170" value="&lt;font color=&quot;#23497d&quot;&gt;租户&lt;/font&gt;" style="swimlane;whiteSpace=wrap;fillColor=none;swimlaneFillColor=#BAC8D3;fontColor=#2F5B7C;fontFamily=Tahoma;html=1;strokeColor=none;opacity=50;startSize=23;" parent="1" vertex="1">
          <mxGeometry x="100" y="60" width="160" height="680" as="geometry">
            <mxRectangle x="20" y="20" width="80" height="23" as="alternateBounds" />
          </mxGeometry>
        </mxCell>
        <mxCell id="171" value="填写注册信息" style="whiteSpace=wrap;shadow=0;fontColor=#FFFFFF;fontFamily=Helvetica;fontStyle=0;html=1;fontSize=12;plain-purple;strokeColor=none;fillColor=#2f5b7c;gradientColor=none;spacing=6;verticalAlign=middle;" parent="170" vertex="1">
          <mxGeometry x="25.5" y="151" width="120" height="60" as="geometry" />
        </mxCell>
        <mxCell id="172" value="使用软件服务" style="whiteSpace=wrap;strokeColor=none;fillColor=#2f5b7c;shadow=0;fontColor=#FFFFFF;fontFamily=Helvetica;fontStyle=0;html=1;fontSize=12;spacing=6;verticalAlign=middle;" parent="170" vertex="1">
          <mxGeometry x="25.5" y="486" width="120" height="60" as="geometry" />
        </mxCell>
        <mxCell id="174" value="" style="edgeStyle=segmentEdgeStyle;strokeColor=#2F5B7C;strokeWidth=3;html=1;endArrow=block;endFill=1;" parent="170" source="172" edge="1">
          <mxGeometry width="100" height="100" relative="1" as="geometry">
            <mxPoint x="175.5" y="508.5" as="sourcePoint" />
            <mxPoint x="85.5" y="596" as="targetPoint" />
          </mxGeometry>
        </mxCell>
        <mxCell id="6_Lf_6Kan3WqsiGXRFqx-218" value="" style="edgeStyle=orthogonalEdgeStyle;rounded=0;orthogonalLoop=1;jettySize=auto;html=1;" edge="1" parent="170" source="6_Lf_6Kan3WqsiGXRFqx-217" target="171">
          <mxGeometry relative="1" as="geometry" />
        </mxCell>
        <mxCell id="6_Lf_6Kan3WqsiGXRFqx-217" value="开始" style="rounded=1;whiteSpace=wrap;html=1;" vertex="1" parent="170">
          <mxGeometry x="25.5" y="41" width="120" height="60" as="geometry" />
        </mxCell>
        <mxCell id="6_Lf_6Kan3WqsiGXRFqx-233" value="选择服务" style="whiteSpace=wrap;shadow=0;fontColor=#FFFFFF;fontFamily=Helvetica;fontStyle=0;html=1;fontSize=12;plain-purple;strokeColor=none;fillColor=#2f5b7c;gradientColor=none;spacing=6;verticalAlign=middle;" vertex="1" parent="170">
          <mxGeometry x="25.5" y="250" width="120" height="60" as="geometry" />
        </mxCell>
        <mxCell id="6_Lf_6Kan3WqsiGXRFqx-234" value="" style="edgeStyle=segmentEdgeStyle;strokeColor=#2F5B7C;strokeWidth=3;html=1;endArrow=block;endFill=1;" edge="1" parent="170" source="171" target="6_Lf_6Kan3WqsiGXRFqx-233">
          <mxGeometry width="100" height="100" relative="1" as="geometry">
            <mxPoint x="186" y="271" as="sourcePoint" />
            <mxPoint x="186" y="546" as="targetPoint" />
          </mxGeometry>
        </mxCell>
        <mxCell id="6_Lf_6Kan3WqsiGXRFqx-235" value="付款" style="whiteSpace=wrap;shadow=0;fontColor=#FFFFFF;fontFamily=Helvetica;fontStyle=0;html=1;fontSize=12;plain-purple;strokeColor=none;fillColor=#2f5b7c;gradientColor=none;spacing=6;verticalAlign=middle;" vertex="1" parent="170">
          <mxGeometry x="25.5" y="354" width="120" height="60" as="geometry" />
        </mxCell>
        <mxCell id="6_Lf_6Kan3WqsiGXRFqx-236" value="" style="edgeStyle=segmentEdgeStyle;strokeColor=#2F5B7C;strokeWidth=3;html=1;endArrow=block;endFill=1;" edge="1" parent="170" source="6_Lf_6Kan3WqsiGXRFqx-233" target="6_Lf_6Kan3WqsiGXRFqx-235">
          <mxGeometry width="100" height="100" relative="1" as="geometry">
            <mxPoint x="186" y="370" as="sourcePoint" />
            <mxPoint x="186" y="546" as="targetPoint" />
          </mxGeometry>
        </mxCell>
        <mxCell id="6_Lf_6Kan3WqsiGXRFqx-239" value="结束" style="rounded=1;whiteSpace=wrap;html=1;" vertex="1" parent="170">
          <mxGeometry x="25.5" y="590" width="120" height="60" as="geometry" />
        </mxCell>
        <mxCell id="183" value="&lt;font color=&quot;#23497d&quot;&gt;商户&lt;/font&gt;" style="swimlane;whiteSpace=wrap;fillColor=none;swimlaneFillColor=#BAC8D3;fontColor=#2F5B7C;fontFamily=Tahoma;html=1;strokeColor=none;opacity=25;" parent="1" vertex="1">
          <mxGeometry x="260" y="60" width="160" height="680" as="geometry">
            <mxRectangle x="20" y="20" width="80" height="23" as="alternateBounds" />
          </mxGeometry>
        </mxCell>
        <mxCell id="184" value="开通服务" style="whiteSpace=wrap;shadow=0;fontColor=#FFFFFF;fontFamily=Helvetica;fontStyle=0;html=1;fontSize=12;plain-purple;strokeColor=none;fillColor=#2f5b7c;gradientColor=none;spacing=6;verticalAlign=middle;" parent="183" vertex="1">
          <mxGeometry x="30" y="354" width="120" height="60" as="geometry" />
        </mxCell>
        <mxCell id="6_Lf_6Kan3WqsiGXRFqx-219" value="&lt;font color=&quot;#23497d&quot;&gt;租户&lt;/font&gt;" style="swimlane;whiteSpace=wrap;fillColor=none;swimlaneFillColor=#BAC8D3;fontColor=#2F5B7C;fontFamily=Tahoma;html=1;strokeColor=none;opacity=50;startSize=23;" vertex="1" parent="1">
          <mxGeometry x="870" y="80" width="160" height="650" as="geometry">
            <mxRectangle x="20" y="20" width="80" height="23" as="alternateBounds" />
          </mxGeometry>
        </mxCell>
        <mxCell id="6_Lf_6Kan3WqsiGXRFqx-242" value="" style="edgeStyle=orthogonalEdgeStyle;rounded=0;orthogonalLoop=1;jettySize=auto;html=1;" edge="1" parent="6_Lf_6Kan3WqsiGXRFqx-219" source="6_Lf_6Kan3WqsiGXRFqx-221" target="6_Lf_6Kan3WqsiGXRFqx-241">
          <mxGeometry relative="1" as="geometry" />
        </mxCell>
        <mxCell id="6_Lf_6Kan3WqsiGXRFqx-221" value="使用软件服务" style="whiteSpace=wrap;strokeColor=none;fillColor=#2f5b7c;shadow=0;fontColor=#FFFFFF;fontFamily=Helvetica;fontStyle=0;html=1;fontSize=12;spacing=6;verticalAlign=middle;" vertex="1" parent="6_Lf_6Kan3WqsiGXRFqx-219">
          <mxGeometry x="25.5" y="486" width="120" height="60" as="geometry" />
        </mxCell>
        <mxCell id="6_Lf_6Kan3WqsiGXRFqx-245" value="" style="edgeStyle=orthogonalEdgeStyle;rounded=0;orthogonalLoop=1;jettySize=auto;html=1;" edge="1" parent="6_Lf_6Kan3WqsiGXRFqx-219" source="6_Lf_6Kan3WqsiGXRFqx-226" target="6_Lf_6Kan3WqsiGXRFqx-244">
          <mxGeometry relative="1" as="geometry" />
        </mxCell>
        <mxCell id="6_Lf_6Kan3WqsiGXRFqx-226" value="开始" style="rounded=1;whiteSpace=wrap;html=1;" vertex="1" parent="6_Lf_6Kan3WqsiGXRFqx-219">
          <mxGeometry x="25.5" y="41" width="120" height="60" as="geometry" />
        </mxCell>
        <mxCell id="6_Lf_6Kan3WqsiGXRFqx-241" value="结束" style="rounded=1;whiteSpace=wrap;html=1;" vertex="1" parent="6_Lf_6Kan3WqsiGXRFqx-219">
          <mxGeometry x="25.5" y="580" width="120" height="60" as="geometry" />
        </mxCell>
        <mxCell id="6_Lf_6Kan3WqsiGXRFqx-244" value="线下购买服务" style="whiteSpace=wrap;shadow=0;fontColor=#FFFFFF;fontFamily=Helvetica;fontStyle=0;html=1;fontSize=12;plain-purple;strokeColor=default;fillColor=#5BB0F0;gradientColor=none;spacing=6;verticalAlign=middle;dashed=1;dashPattern=8 8;" vertex="1" parent="6_Lf_6Kan3WqsiGXRFqx-219">
          <mxGeometry x="25.5" y="130" width="120" height="60" as="geometry" />
        </mxCell>
        <mxCell id="6_Lf_6Kan3WqsiGXRFqx-227" value="&lt;font color=&quot;#23497d&quot;&gt;商户&lt;/font&gt;" style="swimlane;whiteSpace=wrap;fillColor=none;swimlaneFillColor=#BAC8D3;fontColor=#2F5B7C;fontFamily=Tahoma;html=1;strokeColor=none;opacity=25;" vertex="1" parent="1">
          <mxGeometry x="1030" y="80" width="160" height="650" as="geometry">
            <mxRectangle x="20" y="20" width="80" height="23" as="alternateBounds" />
          </mxGeometry>
        </mxCell>
        <mxCell id="6_Lf_6Kan3WqsiGXRFqx-228" value="选择服务" style="whiteSpace=wrap;shadow=0;fontColor=#FFFFFF;fontFamily=Helvetica;fontStyle=0;html=1;fontSize=12;plain-purple;strokeColor=none;fillColor=#2f5b7c;gradientColor=none;spacing=6;verticalAlign=middle;" vertex="1" parent="6_Lf_6Kan3WqsiGXRFqx-227">
          <mxGeometry x="25.5" y="277" width="120" height="60" as="geometry" />
        </mxCell>
        <mxCell id="6_Lf_6Kan3WqsiGXRFqx-230" value="" style="edgeStyle=segmentEdgeStyle;strokeColor=#2F5B7C;strokeWidth=3;html=1;endArrow=block;endFill=1;" edge="1" parent="6_Lf_6Kan3WqsiGXRFqx-227">
          <mxGeometry width="100" height="100" relative="1" as="geometry">
            <mxPoint x="85.5" y="327" as="sourcePoint" />
            <mxPoint x="85.5" y="377" as="targetPoint" />
          </mxGeometry>
        </mxCell>
        <mxCell id="6_Lf_6Kan3WqsiGXRFqx-220" value="填写租户信息" style="whiteSpace=wrap;shadow=0;fontColor=#FFFFFF;fontFamily=Helvetica;fontStyle=0;html=1;fontSize=12;plain-purple;strokeColor=none;fillColor=#2f5b7c;gradientColor=none;spacing=6;verticalAlign=middle;" vertex="1" parent="6_Lf_6Kan3WqsiGXRFqx-227">
          <mxGeometry x="20" y="188" width="120" height="60" as="geometry" />
        </mxCell>
        <mxCell id="6_Lf_6Kan3WqsiGXRFqx-231" value="" style="edgeStyle=segmentEdgeStyle;strokeColor=#2F5B7C;strokeWidth=3;html=1;endArrow=block;endFill=1;" edge="1" parent="6_Lf_6Kan3WqsiGXRFqx-227" source="6_Lf_6Kan3WqsiGXRFqx-220" target="6_Lf_6Kan3WqsiGXRFqx-228">
          <mxGeometry x="-865.5" y="98.5" width="100" height="100" as="geometry">
            <mxPoint x="45.5" y="318" as="sourcePoint" />
            <mxPoint x="145.5" y="218" as="targetPoint" />
          </mxGeometry>
        </mxCell>
        <mxCell id="6_Lf_6Kan3WqsiGXRFqx-240" value="开通服务" style="whiteSpace=wrap;shadow=0;fontColor=#FFFFFF;fontFamily=Helvetica;fontStyle=0;html=1;fontSize=12;plain-purple;strokeColor=none;fillColor=#2f5b7c;gradientColor=none;spacing=6;verticalAlign=middle;" vertex="1" parent="6_Lf_6Kan3WqsiGXRFqx-227">
          <mxGeometry x="25.5" y="380" width="120" height="60" as="geometry" />
        </mxCell>
        <mxCell id="6_Lf_6Kan3WqsiGXRFqx-237" value="" style="edgeStyle=orthogonalEdgeStyle;rounded=0;orthogonalLoop=1;jettySize=auto;html=1;" edge="1" parent="1" source="6_Lf_6Kan3WqsiGXRFqx-235" target="184">
          <mxGeometry relative="1" as="geometry" />
        </mxCell>
        <mxCell id="6_Lf_6Kan3WqsiGXRFqx-238" style="edgeStyle=orthogonalEdgeStyle;rounded=0;orthogonalLoop=1;jettySize=auto;html=1;entryX=1;entryY=0.5;entryDx=0;entryDy=0;" edge="1" parent="1" source="184" target="172">
          <mxGeometry relative="1" as="geometry">
            <Array as="points">
              <mxPoint x="350" y="576" />
            </Array>
          </mxGeometry>
        </mxCell>
        <mxCell id="6_Lf_6Kan3WqsiGXRFqx-243" style="edgeStyle=orthogonalEdgeStyle;rounded=0;orthogonalLoop=1;jettySize=auto;html=1;entryX=1;entryY=0.5;entryDx=0;entryDy=0;" edge="1" parent="1" source="6_Lf_6Kan3WqsiGXRFqx-240" target="6_Lf_6Kan3WqsiGXRFqx-221">
          <mxGeometry relative="1" as="geometry">
            <mxPoint x="1020" y="610" as="targetPoint" />
            <Array as="points">
              <mxPoint x="1116" y="596" />
            </Array>
          </mxGeometry>
        </mxCell>
        <mxCell id="6_Lf_6Kan3WqsiGXRFqx-247" style="edgeStyle=orthogonalEdgeStyle;rounded=0;orthogonalLoop=1;jettySize=auto;html=1;entryX=0;entryY=0.5;entryDx=0;entryDy=0;" edge="1" parent="1" source="6_Lf_6Kan3WqsiGXRFqx-244" target="6_Lf_6Kan3WqsiGXRFqx-220">
          <mxGeometry relative="1" as="geometry">
            <Array as="points">
              <mxPoint x="956" y="298" />
            </Array>
          </mxGeometry>
        </mxCell>
      </root>
    </mxGraphModel>
  </diagram>
</mxfile>
